HIERARCHY
ROOT Hips
{
	OFFSET 151.697800 93.143646 -72.043053
	CHANNELS 6 Xposition Yposition Zposition Zrotation Yrotation Xrotation 
	JOINT RightUpLeg
	{
		OFFSET 0.103458 1.857831 10.548505
		CHANNELS 3 Xrotation Yrotation Zrotation
		JOINT RightLeg
		{
			OFFSET 43.500000 -0.000031 0.000002
			CHANNELS 3 Xrotation Yrotation Zrotation
			JOINT RightFoot
			{
				OFFSET 42.372200 0.000023 0.000003
				CHANNELS 3 Xrotation Yrotation Zrotation
				JOINT RightToe
				{
					OFFSET 17.299997 -0.000001 -0.000010
					CHANNELS 3 Xrotation Yrotation Zrotation
					End Site
					{
						OFFSET 0.000000 0.000000 0.000000
					}
				}
			}
		}
	}
	JOINT LeftUpLeg
	{
		OFFSET 0.103457 1.857828 -10.548510
		CHANNELS 3 Xrotation Yrotation Zrotation
		JOINT LeftLeg
		{
			OFFSET 43.500046 -0.000015 0.000002
			CHANNELS 3 Xrotation Yrotation Zrotation
			JOINT LeftFoot
			{
				OFFSET 42.372261 -0.000008 0.000023
				CHANNELS 3 Xrotation Yrotation Zrotation
				JOINT LeftToe
				{
					OFFSET 17.299990 -0.000007 -0.000002
					CHANNELS 3 Xrotation Yrotation Zrotation
					End Site
					{
						OFFSET 0.000000 0.000000 0.000000
					}
				}
			}
		}
	}
	JOINT Spine
	{
		OFFSET 6.901967 -2.603726 -0.000001
		CHANNELS 3 Xrotation Yrotation Zrotation
		JOINT Spine1
		{
			OFFSET 12.588100 -0.000009 -0.000003
			CHANNELS 3 Xrotation Yrotation Zrotation
			JOINT Spine2
			{
				OFFSET 12.343202 0.000008 0.000008
				CHANNELS 3 Xrotation Yrotation Zrotation
				JOINT Neck
				{
					OFFSET 25.832897 -0.000015 -0.000004
					CHANNELS 3 Xrotation Yrotation Zrotation
					JOINT Head
					{
						OFFSET 11.766609 0.000013 -0.000006
						CHANNELS 3 Xrotation Yrotation Zrotation
						End Site
						{
							OFFSET 0.000000 0.000000 0.000000
						}
					}
				}
				JOINT RightShoulder
				{
					OFFSET 19.745911 -1.480373 6.000098
					CHANNELS 3 Xrotation Yrotation Zrotation
					JOINT RightArm
					{
						OFFSET 11.284123 -0.000007 -0.000032
						CHANNELS 3 Xrotation Yrotation Zrotation
						JOINT RightForeArm
						{
							OFFSET 33.000050 0.000005 0.000031
							CHANNELS 3 Xrotation Yrotation Zrotation
							JOINT RightHand
							{
								OFFSET 25.200008 0.000017 0.000013
								CHANNELS 3 Xrotation Yrotation Zrotation
								End Site
								{
									OFFSET 0.000000 0.000000 0.000000
								}
							}
						}
					}
				}
				JOINT LeftShoulder
				{
					OFFSET 19.746092 -1.480379 -6.000077
					CHANNELS 3 Xrotation Yrotation Zrotation
					JOINT LeftArm
					{
						OFFSET 11.284136 -0.000017 -0.000017
						CHANNELS 3 Xrotation Yrotation Zrotation
						JOINT LeftForeArm
						{
							OFFSET 33.000099 0.000019 0.000015
							CHANNELS 3 Xrotation Yrotation Zrotation
							JOINT LeftHand
							{
								OFFSET 25.199780 0.000140 0.000408
								CHANNELS 3 Xrotation Yrotation Zrotation
								End Site
								{
									OFFSET 0.000000 0.000000 0.000000
								}
							}
						}
					}
				}
			}
		}
	}
}
MOTION
Frames: 12
Frame Time: 0.033333
-146.640900 88.276863 160.699097 90.735211 0.016421 -88.529176 147.046787 2.885795 178.329873 -56.013323 0.569774 -8.673283 74.382010 5.519504 -2.366131 21.454563 0.003108 0.000018 -178.492227 -2.218005 -177.185489 -31.494467 1.661522 0.508076 82.215909 -1.068985 -2.803535 21.454545 -0.003081 -0.000002 7.417801 0.682420 0.731953 4.831787 1.333955 1.491635 4.513708 1.342805 1.483545 17.518146 1.148967 1.377209 -18.130283 -3.145266 2.668507 -160.845983 -69.715003 -21.110774 16.300614 55.455207 51.957563 -41.639644 -18.731174 1.773761 5.667017 -3.717448 15.089857 -167.775865 75.878996 13.985372 -19.420477 -57.639639 -23.593244 -46.509473 15.917129 -1.702025 10.843375 6.894858 -3.438176 
-146.972397 89.579842 155.904404 89.897755 1.109625 -90.216383 148.686456 3.654009 177.356435 -39.179601 0.175801 -7.435925 75.214111 4.931882 -1.433421 21.454560 0.003092 0.000016 -175.380393 -0.843796 -178.220959 -27.584212 1.941600 0.164824 75.693775 -0.600753 -1.352324 21.454550 -0.003082 -0.000003 7.048632 0.360615 0.828177 4.089541 0.692109 1.668465 3.771567 0.702050 1.664252 16.721128 0.560945 1.993655 -17.875141 -2.838419 3.190915 -160.690336 -69.817934 -21.269995 18.137123 53.713970 55.906236 -34.225753 -17.068998 1.477913 8.300322 2.426594 16.741352 -171.005575 77.390729 10.688429 -22.510519 -59.402961 -20.331004 -55.212042 15.708095 -1.973148 8.364285 3.113617 -6.408089 
-147.102707 89.929337 150.917007 89.963495 1.096285 -91.696273 150.953656 3.687695 179.044065 -27.195961 -1.296355 -7.695383 75.264033 5.186949 -1.343778 21.454560 0.003106 0.000017 -172.918000 -0.362301 -179.464067 -27.474682 2.171839 -0.060053 71.181978 0.218825 0.854754 21.454550 -0.003090 0.000000 6.932271 0.229625 0.895646 3.855142 0.429716 1.798348 3.537188 0.440421 1.795720 14.838405 0.687174 2.350405 -16.565280 -3.840127 3.895733 -160.447878 -70.531074 -21.509884 20.774172 52.125801 59.764736 -29.822112 -14.978866 1.251092 9.723956 8.029614 19.718293 -175.016180 78.876998 6.612371 -25.958878 -60.566778 -16.691890 -64.356604 14.349440 -2.220184 5.037670 2.122573 -15.625096 
-147.233002 89.427094 145.798294 90.096363 0.373331 -93.281758 152.960734 3.571106 178.702938 -22.204588 -2.057912 -8.687388 75.197603 6.050801 -0.835408 21.454557 0.003111 0.000017 -171.715231 0.870299 -178.912352 -31.760219 2.359854 -1.768512 69.212779 2.099045 2.653507 21.454553 -0.003093 0.000001 6.881795 0.113787 0.882550 3.752265 0.199306 1.768284 3.434331 0.209846 1.767055 13.490603 0.032046 3.477871 -15.160421 -3.093771 4.731007 -160.501509 -70.978329 -21.448269 24.543860 49.903251 65.064628 -27.978473 -13.852527 1.144551 11.471456 13.743626 22.051940 -177.417606 79.975225 4.183713 -30.416315 -60.340623 -12.604984 -73.820971 11.576174 -2.412360 2.526682 1.803359 -25.979989 
-147.294296 88.072571 140.928497 90.058633 -0.806612 -95.178365 154.135212 3.540409 177.005677 -23.772140 -1.826067 -9.930309 72.024037 7.999566 2.629208 21.454557 0.003114 0.000018 -172.329156 2.341516 -179.270432 -40.061802 2.193630 -3.362815 67.712228 3.944892 4.316323 21.454553 -0.003089 0.000000 6.909922 -0.037170 0.782273 3.806335 -0.099677 1.562935 3.488353 -0.090377 1.563511 12.502881 0.384961 4.524314 -13.349500 -4.416452 6.214234 -157.333025 -71.774408 -24.695230 28.345562 48.511757 71.340609 -27.836303 -13.548876 1.122541 12.674802 18.074508 24.099452 179.409139 80.978552 0.979519 -35.661712 -59.477349 -6.801664 -82.693046 8.163997 -2.554460 0.218996 0.496538 -34.774904 
-147.378403 86.369499 136.429596 89.551362 -2.170214 -97.084391 153.267109 3.502112 174.979311 -32.692048 -1.970270 -10.860441 74.139135 8.928109 4.024198 21.454557 0.003097 0.000016 -175.029308 4.477996 -179.439369 -51.377649 0.982122 -5.182030 65.184511 6.622040 7.168859 21.454550 -0.003091 -0.000002 6.940279 -0.290958 0.633951 3.864460 -0.602616 1.258000 3.546431 -0.595140 1.261612 13.019176 0.913403 5.780876 -12.796658 -5.196089 7.787967 -156.453911 -72.071610 -25.592936 31.593057 46.332598 76.838399 -28.735238 -13.424382 1.130809 12.385803 20.766760 24.090455 175.796884 80.541734 -2.692689 -38.919767 -57.727495 -0.860127 -90.854302 4.208239 -2.637307 0.181493 -1.516172 -40.941356 
-147.614594 84.426048 131.648895 88.738234 -4.922627 -97.963054 153.685813 3.851295 174.134662 -43.318818 -3.335316 -11.106802 82.164792 8.414845 2.866311 21.454558 0.003110 0.000019 -176.962237 6.921199 -179.205381 -62.494537 -0.816927 -6.817639 61.916143 8.314217 7.474098 21.454551 -0.003101 0.000005 7.467322 -0.752529 0.385466 4.917293 -1.520598 0.738893 4.599105 -1.516244 0.748062 12.846018 1.477488 6.844180 -12.742503 -5.923649 9.164370 -157.359799 -71.278256 -24.677267 30.453327 44.007035 77.890378 -28.861080 -13.034089 1.108024 10.997261 21.812626 20.569381 -179.356287 79.940227 2.214440 -43.937545 -56.564457 5.027767 -96.227120 2.662006 -2.768040 -2.713851 -1.751428 -40.958387 
-147.630005 83.475754 127.268700 88.637537 -6.818272 -97.705228 156.316816 3.346600 170.226769 -48.329671 -2.581403 -8.875245 87.303041 6.739022 3.438004 21.454555 0.003103 0.000016 179.853880 7.222698 179.871666 -71.354235 -1.524875 -5.155532 64.699814 5.915065 5.112313 21.454541 -0.003083 -0.000000 7.955844 -1.003910 0.255434 5.895681 -2.019410 0.459687 5.577395 -2.016734 0.471884 13.696212 1.903017 7.324319 -14.773933 -6.045462 9.867982 -160.242604 -71.005684 -21.714534 26.390482 44.603748 73.619167 -25.468621 -12.800359 1.034591 8.799123 20.669419 18.741945 -177.211662 77.896115 4.366326 -43.644659 -56.424794 8.217886 -99.132362 2.122577 -2.859496 -5.122497 -1.492854 -40.230060 
-147.692795 83.538918 123.281502 88.693954 -7.728812 -96.427654 159.701420 3.603700 170.393672 -49.214296 -3.016344 -8.080164 90.122816 6.116799 3.715534 21.454558 0.003111 0.000017 175.592416 6.828988 -179.927783 -76.732462 -2.158991 -1.452600 67.581587 3.285352 5.734559 21.454553 -0.003087 0.000001 8.258038 -1.073371 0.061209 6.503817 -2.148384 0.062203 6.185463 -2.148114 0.075189 14.508843 1.924389 7.311858 -14.494027 -6.155346 9.871346 -162.504407 -70.333388 -19.392657 20.977333 45.943206 65.504144 -23.310952 -12.930681 1.010240 10.363002 12.986411 21.662012 -175.607387 76.967687 5.991308 -41.120584 -58.755070 9.771176 -98.744926 2.037082 -2.836322 -10.213960 1.641963 -34.353502 
-147.875504 84.375099 119.521797 88.382935 -7.930570 -94.559482 163.723049 4.841598 171.956091 -46.759455 -3.325935 -7.832041 91.209615 5.923698 3.878415 21.454555 0.003110 0.000016 170.857401 6.033092 -179.471526 -78.489221 -2.867565 3.375474 68.878558 -0.019888 6.538290 21.454558 -0.003096 0.000004 8.352356 -1.067698 -0.107665 6.695605 -2.127319 -0.276785 6.377253 -2.129102 -0.263928 16.176028 0.935286 7.067322 -14.376449 -5.383213 9.309603 -163.996995 -69.682205 -17.859372 15.329893 47.932922 53.384468 -23.878878 -13.634592 1.063494 10.835851 4.792811 25.969600 -172.702945 76.732517 8.953610 -35.751447 -61.673036 8.378259 -96.079984 2.389462 -2.742452 -11.437550 6.172940 -30.369654 
-148.131195 85.731529 115.749802 88.024555 -8.135326 -92.234506 169.040365 6.006801 173.486627 -41.722887 -3.387782 -7.227928 90.916061 5.599610 4.356045 21.454558 0.003108 0.000017 166.967362 5.387291 -179.107654 -76.350990 -3.182772 6.734128 69.288629 -2.689428 5.980420 21.454557 -0.003098 0.000007 8.422840 -1.050604 -0.266375 6.839361 -2.083609 -0.594318 6.521060 -2.087287 -0.581720 18.115200 0.907137 6.681952 -14.809392 -4.859822 8.759946 -164.232390 -69.561481 -17.617462 9.158193 50.085736 45.140956 -26.720369 -15.329055 1.216914 9.641767 -4.157913 25.481598 -169.993327 75.121938 11.717604 -27.288598 -62.944059 2.797242 -91.409576 3.670251 -2.624337 -9.152990 8.893822 -29.719065 
-148.406601 87.122726 112.110397 87.765499 -7.365565 -89.508666 173.705412 6.652412 175.822279 -35.786616 -3.883101 -6.680170 89.582439 5.414019 5.006728 21.454558 0.003116 0.000019 162.887185 4.934004 -178.934960 -71.342521 -3.003077 8.397537 70.470299 -4.127754 5.515684 21.454557 -0.003106 0.000007 8.253553 -0.928501 -0.528212 6.503915 -1.825888 -1.107713 6.185707 -1.832671 -1.096679 18.755906 0.856728 6.310507 -14.027603 -4.498134 8.204349 -165.217973 -70.004036 -16.597086 4.982002 52.187324 40.095038 -32.269208 -17.685677 1.474356 8.309764 -9.284092 16.659917 -165.884108 75.126904 15.923198 -20.048786 -64.401779 -4.629459 -85.390192 7.116312 -2.599288 -3.706386 11.513789 -30.901821 
